<?xml version="1.0" encoding="utf-8"?>
<!-- Generator: Adobe Illustrator 25.1.0, SVG Export Plug-In . SVG Version: 6.00 Build 0)  -->
<svg version="1.1" id="Layer_1" xmlns="http://www.w3.org/2000/svg" xmlns:xlink="http://www.w3.org/1999/xlink" x="0px" y="0px"
	 viewBox="0 0 522 105" style="enable-background:new 0 0 522 105;" xml:space="preserve">
<style type="text/css">
	.st0{fill:url(#SVGID_1_);}
	.st1{fill:none;}
</style>
<g fill="#888888">
	<g>
		<g>
			<path d="M105.1,48.7h23.5v3.5h-19.8V64h17.7v3.4h-17.7v14.5h-3.7V48.7z"/>
			<path d="M131.9,69.7L131.9,69.7c0-7.2,4.9-12.8,11.6-12.8c7.2,0,11.3,5.8,11.3,12.9c0,0.5,0,0.8,0,1.2h-19.2
				c0.5,5.3,4.2,8.3,8.5,8.3c3.3,0,5.7-1.4,7.6-3.5l2.2,2c-2.4,2.7-5.4,4.6-10,4.6C137.3,82.5,131.9,77.3,131.9,69.7z M151.1,68.3
				c-0.4-4.5-2.9-8.3-7.7-8.3c-4.2,0-7.4,3.6-7.9,8.3H151.1z"/>
			<path d="M158,74.8L158,74.8c0-5.3,4.2-8,10.3-8c3.1,0,5.3,0.4,7.4,1V67c0-4.4-2.7-6.7-7.2-6.7c-2.9,0-5.1,0.8-7.3,1.8l-1.1-3
				c2.7-1.2,5.3-2,8.8-2c3.4,0,6,0.9,7.8,2.7c1.6,1.7,2.5,4,2.5,7.2v15h-3.5v-3.7c-1.7,2.2-4.5,4.2-8.7,4.2
				C162.6,82.4,158,79.8,158,74.8z M175.9,72.9v-2.4c-1.8-0.5-4.2-1-7.1-1c-4.5,0-7.1,2-7.1,5.1v0.1c0,3.1,2.8,4.9,6.1,4.9
				C172.2,79.5,175.9,76.8,175.9,72.9z"/>
			<path d="M186.8,75.4V60.6h-3.4v-3.2h3.4V50h3.6v7.4h7.7v3.2h-7.7v14.3c0,3,1.6,4.1,4.1,4.1c1.2,0,2.2-0.2,3.5-0.9v3.1
				c-1.3,0.7-2.6,1-4.4,1C189.8,82.3,186.8,80.4,186.8,75.4z"/>
			<path d="M202.9,72.6V57.4h3.6v14.3c0,4.5,2.4,7.4,6.7,7.4c4.1,0,7.2-3.1,7.2-7.7v-14h3.6v24.5h-3.6v-4.3
				c-1.6,2.7-4.1,4.8-8.3,4.8C206.3,82.4,202.9,78.4,202.9,72.6z"/>
			<path d="M230.9,57.4h3.6v6.4c1.8-4.1,5.3-7,9.9-6.8v3.9h-0.3c-5.3,0-9.6,3.8-9.6,11.2v9.8h-3.6V57.4z"/>
			<path d="M246.2,69.7L246.2,69.7c0-7.2,4.9-12.8,11.6-12.8c7.2,0,11.3,5.8,11.3,12.9c0,0.5,0,0.8,0,1.2h-19.2
				c0.5,5.3,4.2,8.3,8.5,8.3c3.3,0,5.7-1.4,7.6-3.5l2.2,2c-2.4,2.7-5.4,4.6-10,4.6C251.6,82.5,246.2,77.3,246.2,69.7z M265.4,68.3
				c-0.4-4.5-2.9-8.3-7.7-8.3c-4.2,0-7.4,3.6-7.9,8.3H265.4z"/>
			<path d="M285.5,77.1l2.3-2.7c3.4,3.1,6.7,4.7,11.2,4.7c4.4,0,7.3-2.4,7.3-5.6v-0.1c0-3.1-1.6-4.8-8.5-6.3c-7.5-1.7-11-4.1-11-9.6
				v-0.1c0-5.2,4.5-9.1,10.8-9.1c4.8,0,8.2,1.4,11.5,4.1l-2.2,2.9c-3-2.5-6.1-3.6-9.4-3.6c-4.3,0-7,2.4-7,5.4v0.1
				c0,3.1,1.7,4.9,8.9,6.4c7.3,1.6,10.7,4.3,10.7,9.4V73c0,5.7-4.7,9.4-11.2,9.4C293.7,82.4,289.4,80.6,285.5,77.1z"/>
			<path d="M315.4,72.6V57.4h3.6v14.3c0,4.5,2.4,7.4,6.7,7.4c4.1,0,7.2-3.1,7.2-7.7v-14h3.6v24.5H333v-4.3c-1.6,2.7-4.1,4.8-8.3,4.8
				C318.8,82.4,315.4,78.4,315.4,72.6z"/>
			<path d="M343.2,86.2l1.6-2.8c2.8,2,5.8,3.1,9.3,3.1c5.3,0,8.8-3,8.8-8.7v-2.9c-2.1,2.8-5.1,5.2-9.5,5.2
				c-5.8,0-11.4-4.4-11.4-11.5v-0.1c0-7.2,5.6-11.6,11.4-11.6c4.5,0,7.5,2.3,9.4,4.9v-4.4h3.6v20.2c0,3.8-1.1,6.7-3.1,8.7
				c-2.2,2.2-5.4,3.3-9.2,3.3C350.1,89.6,346.4,88.4,343.2,86.2z M363,68.5L363,68.5c0-5.1-4.3-8.4-8.9-8.4c-4.6,0-8.4,3.2-8.4,8.2
				v0.1c0,4.9,3.9,8.3,8.4,8.3C358.7,76.8,363,73.4,363,68.5z"/>
			<path d="M373.1,86.2l1.6-2.8c2.8,2,5.8,3.1,9.3,3.1c5.3,0,8.8-3,8.8-8.7v-2.9c-2.1,2.8-5.1,5.2-9.5,5.2
				c-5.8,0-11.4-4.4-11.4-11.5v-0.1c0-7.2,5.6-11.6,11.4-11.6c4.5,0,7.5,2.3,9.4,4.9v-4.4h3.6v20.2c0,3.8-1.1,6.7-3.1,8.7
				c-2.2,2.2-5.4,3.3-9.2,3.3C380,89.6,376.3,88.4,373.1,86.2z M392.9,68.5L392.9,68.5c0-5.1-4.3-8.4-8.9-8.4
				c-4.6,0-8.4,3.2-8.4,8.2v0.1c0,4.9,3.9,8.3,8.4,8.3C388.6,76.8,392.9,73.4,392.9,68.5z"/>
			<path d="M401.7,69.7L401.7,69.7c0-7.2,4.9-12.8,11.6-12.8c7.2,0,11.3,5.8,11.3,12.9c0,0.5,0,0.8,0,1.2h-19.2
				c0.5,5.3,4.2,8.3,8.5,8.3c3.3,0,5.7-1.4,7.6-3.5l2.2,2c-2.4,2.7-5.4,4.6-10,4.6C407.1,82.5,401.7,77.3,401.7,69.7z M420.9,68.3
				c-0.4-4.5-2.9-8.3-7.7-8.3c-4.2,0-7.4,3.6-7.9,8.3H420.9z"/>
			<path d="M427.7,78.8l1.8-2.6c2.6,2,5.5,3.1,8.4,3.1c2.9,0,5-1.5,5-3.9v-0.1c0-2.5-2.9-3.4-6-4.3c-3.8-1.1-8-2.4-8-6.9V64
				c0-4.2,3.5-7,8.2-7c2.9,0,6.2,1,8.7,2.7l-1.6,2.7c-2.2-1.5-4.8-2.4-7.2-2.4c-2.9,0-4.7,1.5-4.7,3.6v0.1c0,2.3,3,3.2,6.2,4.2
				c3.7,1.1,7.8,2.6,7.8,7V75c0,4.6-3.8,7.3-8.6,7.3C434.3,82.4,430.4,81,427.7,78.8z"/>
			<path d="M452.7,75.4V60.6h-3.4v-3.2h3.4V50h3.6v7.4h7.7v3.2h-7.7v14.3c0,3,1.6,4.1,4.1,4.1c1.2,0,2.2-0.2,3.5-0.9v3.1
				c-1.3,0.7-2.6,1-4.3,1C455.6,82.3,452.7,80.4,452.7,75.4z"/>
			<path d="M466.9,69.7L466.9,69.7c0-7.2,4.9-12.8,11.6-12.8c7.2,0,11.3,5.8,11.3,12.9c0,0.5,0,0.8,0,1.2h-19.2
				c0.5,5.3,4.2,8.3,8.5,8.3c3.3,0,5.7-1.4,7.6-3.5l2.2,2c-2.4,2.7-5.4,4.6-10,4.6C472.3,82.5,466.9,77.3,466.9,69.7z M486.1,68.3
				c-0.4-4.5-2.9-8.3-7.7-8.3c-4.2,0-7.4,3.6-7.9,8.3H486.1z"/>
			<path d="M494.9,57.4h3.6v6.4c1.8-4.1,5.3-7,9.9-6.8v3.9h-0.3c-5.3,0-9.6,3.8-9.6,11.2v9.8h-3.6V57.4z"/>
		</g>
	</g>
	<linearGradient id="SVGID_1_" gradientUnits="userSpaceOnUse" x1="86.7479" y1="18.1245" x2="27.9624" y2="76.91">
		<stop  offset="0.1721" style="stop-color:#15DD69"/>
		<stop  offset="1" style="stop-color:#087CFA"/>
	</linearGradient>
	<path class="st0" d="M82.5,22.4v45.1H60V45.1H37.4V22.4H82.5z M52.4,52.3H22.5l9.7,9.8l-9.7,9.7l10.4,10.6l9.8-9.8l9.7,9.8
		L52.4,52.3z"/>
	<rect class="st1" width="522" height="105"/>
	<g>
		<path d="M102.8,38.4l1.5-1.3c1.2,1.8,2.3,2.7,4.3,2.7c2.1,0,3.7-1.5,3.7-4.5V22.6h2.2v12.6c0,2.2-0.6,3.9-1.7,5
			c-1.1,1-2.5,1.6-4.2,1.6C105.8,41.7,104,40.3,102.8,38.4z"/>
		<path d="M118.4,34.5L118.4,34.5c0-4.1,2.8-7.3,6.7-7.3c4.1,0,6.5,3.3,6.5,7.4c0,0.3,0,0.4,0,0.7h-11.1c0.3,3,2.4,4.7,4.9,4.7
			c1.9,0,3.3-0.8,4.4-2l1.3,1.2c-1.4,1.6-3.1,2.6-5.7,2.6C121.6,41.8,118.4,38.8,118.4,34.5z M129.5,33.7c-0.2-2.5-1.7-4.8-4.5-4.8
			c-2.4,0-4.3,2-4.5,4.8H129.5z"/>
		<path d="M135.5,37.8v-8.4h-1.9v-1.8h1.9v-4.2h2.1v4.2h4.4v1.8h-4.4v8.2c0,1.7,0.9,2.3,2.3,2.3c0.7,0,1.3-0.1,2-0.5v1.8
			c-0.7,0.4-1.5,0.6-2.5,0.6C137.2,41.7,135.5,40.6,135.5,37.8z"/>
		<path d="M145.5,22.6h8c2.2,0,3.9,0.6,4.9,1.7c0.8,0.8,1.2,1.8,1.2,3v0.1c0,2.5-1.5,3.7-3,4.4c2.2,0.7,4,2,4,4.6v0.1
			c0,3.2-2.7,5.2-6.9,5.2h-8.4V22.6z M157.5,27.5c0-1.9-1.5-3.1-4.2-3.1h-5.7V31h5.6C155.8,31,157.5,29.8,157.5,27.5L157.5,27.5z
			 M153.6,32.9h-6v6.7h6.3c2.9,0,4.6-1.3,4.6-3.4v-0.1C158.6,34.1,156.9,32.9,153.6,32.9z"/>
		<path d="M164.7,27.5h2.1v3.6c1-2.3,3.1-4,5.7-3.9v2.2h-0.2c-3,0-5.5,2.2-5.5,6.4v5.6h-2.1V27.5z"/>
		<path d="M174.2,37.4L174.2,37.4c0-3,2.4-4.6,6-4.6c1.8,0,3.1,0.2,4.3,0.6v-0.5c0-2.5-1.5-3.8-4.2-3.8c-1.6,0-2.9,0.4-4.2,1
			l-0.6-1.7c1.5-0.7,3.1-1.2,5.1-1.2c2,0,3.5,0.5,4.5,1.5c0.9,0.9,1.4,2.3,1.4,4.1v8.5h-2v-2.1c-1,1.3-2.6,2.4-5,2.4
			C176.8,41.7,174.2,40.3,174.2,37.4z M184.5,36.3V35c-1-0.3-2.4-0.6-4.1-0.6c-2.6,0-4.1,1.1-4.1,2.9v0.1c0,1.8,1.6,2.8,3.5,2.8
			C182.4,40.1,184.5,38.5,184.5,36.3z"/>
		<path d="M190.7,22.2h2.4v2.3h-2.4V22.2z M190.8,27.5h2.1v14h-2.1V27.5z"/>
		<path d="M197.4,27.5h2.1v2.4c0.9-1.5,2.4-2.7,4.8-2.7c3.4,0,5.3,2.3,5.3,5.6v8.7h-2.1v-8.2c0-2.6-1.4-4.2-3.9-4.2
			c-2.4,0-4.2,1.8-4.2,4.4v8h-2.1V27.5z"/>
		<path d="M212.7,39.7l1.1-1.5c1.5,1.1,3.2,1.8,4.8,1.8c1.7,0,2.9-0.9,2.9-2.2v-0.1c0-1.4-1.6-1.9-3.5-2.5c-2.2-0.6-4.6-1.4-4.6-3.9
			v-0.1c0-2.4,2-4,4.8-4c1.7,0,3.6,0.6,5,1.5l-0.9,1.6c-1.3-0.8-2.8-1.3-4.1-1.3c-1.6,0-2.7,0.9-2.7,2v0.1c0,1.3,1.7,1.8,3.6,2.4
			c2.2,0.6,4.5,1.5,4.5,4v0.1c0,2.6-2.2,4.2-5,4.2C216.5,41.7,214.3,40.9,212.7,39.7z"/>
	</g>
</g>
</svg>
